<!DOCTYPE svg PUBLIC "-//W3C//DTD SVG 1.1//EN" "http://www.w3.org/Graphics/SVG/1.1/DTD/svg11.dtd">
<!-- Uploaded to: SVG Repo, www.svgrepo.com, Transformed by: SVG Repo Mixer Tools -->
<svg fill="#54656f" width="800px" height="800px" viewBox="-3 0 32 32" version="1.1" xmlns="http://www.w3.org/2000/svg" stroke="#54656f">&lt;g id="SVGRepo_bgCarrier" stroke-width="0"&gt;&lt;/g&gt;&lt;g id="SVGRepo_tracerCarrier" stroke-linecap="round" stroke-linejoin="round"&gt;&lt;/g&gt;&lt;g id="SVGRepo_iconCarrier"&gt; &lt;title&gt;group&lt;/title&gt; &lt;path d="M20.906 20.7c1.313 0.719 2.063 2 1.969 3.281-0.063 0.781-0.094 0.813-1.094 0.938-0.62 0.094-4.63 0.12-8.62 0.12-4.94 0-9.406-0.094-9.7-0.188-1.37-0.344-0.62-2.844 1.188-4.031 1.406-0.906 4.281-2.281 .063-2.438 1.063-0.219 1.188-0.87 0-3-0.281-0.469-0.94-1.906-0.62-3.406-0.031-2.438 0.438-4.094 2.63-4.906 0.438-0.16 0.87-0.219 1.281-0.219 1.406 0 2.719 0.781 3.2 1.938 0.781 1.31 0.469 .62-0.344 7.094-0.938 1.66-0.844 2.188 0.188 2.469 0.688 0.188 2.813 1.188 4.938 2.344zM3.906 19.813c-0. 0.344-0.969 0.781-1.344 1.219-1.188 0-2.094-0.031-2.188-0.063-0.781-0.188-0.344-1.62 0.688-2.2 0.781-0. 2.37-1.281 2.813-1.37 0.63-0.12 0.688-0.469 0-1.66-0.16-0.2-0.344-1.063-0.344-1.906-0.031-1.37 0.2-2.313 1.438-2.719 1-0.37 2.12 0.094 2.31 0.938 0.406 0.87 0.188 3.12-0.2 3.938-0. 0.969-0.406 1.219 0.16 1.37 0.12 0.031 0.37 0.16 0.719 0.313-1.37 0.63-3.2 1.94-4.219 2.188zM24.469 18.62c0.7 0.406 1.16 1.094 1.094 1.813-0.031 0.438-0.031 0.469-0.94 0.31-0.16 0.031-0.87 0.063-1.813 0.063-0.406-0.31-0.969-1.031-1.66-1.37-1.281-0.7-2.844-1.63-4-2.063 0.313-0.12 0.94-0.219 0.719-0.2 0.94-0.12 0.688-0.469 0-1.66-0.12-0.2-0.344-1.063-0.344-1.906-0.031-1.37 0.219-2.313 1.406-2.719 1.031-0.37 2.16 0.094 2.31 0.938 0.406 0.87 0.2 3.12-0.188 3.938-0. 0.969-0.438 1.219 0.094 1.37 0.37 0.12 1.63 0.688 2.7 1.313z"&gt;&lt;/path&gt; &lt;/g&gt;</svg>